<?xml version="1.0" encoding="UTF-8" standalone="no"?>
<svg
   xmlns:dc="http://purl.org/dc/elements/1.1/"
   xmlns:cc="http://creativecommons.org/ns#"
   xmlns:rdf="http://www.w3.org/1999/02/22-rdf-syntax-ns#"
   xmlns:svg="http://www.w3.org/2000/svg"
   xmlns="http://www.w3.org/2000/svg"
   xmlns:sodipodi="http://sodipodi.sourceforge.net/DTD/sodipodi-0.dtd"
   xmlns:inkscape="http://www.inkscape.org/namespaces/inkscape"
   inkscape:version="0.92.4 (5da689c313, 2019-01-14)"
   sodipodi:docname="cronometro.svg"
   id="svg46"
   version="1.1"
   width="512"
   viewBox="0 0 110 110"
   height="512"
   enable-background="new 0 0 110 110">
  <metadata
     id="metadata52">
    <rdf:RDF>
      <cc:Work
         rdf:about="">
        <dc:format>image/svg+xml</dc:format>
        <dc:type
           rdf:resource="http://purl.org/dc/dcmitype/StillImage" />
        <dc:title />
      </cc:Work>
    </rdf:RDF>
  </metadata>
  <defs
     id="defs50" />
  <sodipodi:namedview
     pagecolor="#ffffff"
     bordercolor="#666666"
     borderopacity="1"
     objecttolerance="10"
     gridtolerance="10"
     guidetolerance="10"
     inkscape:pageopacity="0"
     inkscape:pageshadow="2"
     inkscape:window-width="1876"
     inkscape:window-height="1016"
     id="namedview48"
     showgrid="false"
     inkscape:zoom="1.3037281"
     inkscape:cx="402.95435"
     inkscape:cy="189.75449"
     inkscape:window-x="1920"
     inkscape:window-y="27"
     inkscape:window-maximized="1"
     inkscape:current-layer="flowRoot47" />
  <flowRoot
     xml:space="preserve"
     id="flowRoot25"
     style="font-style:normal;font-weight:normal;font-size:40px;line-height:1.25;font-family:sans-serif;letter-spacing:0px;word-spacing:0px;fill:#000000;fill-opacity:1;stroke:none"
     transform="scale(0.21484375)"><flowRegion
       id="flowRegion27"><rect
         id="rect29"
         width="58.294361"
         height="55.993271"
         x="644.30609"
         y="114.67789" /></flowRegion><flowPara
       id="flowPara31">MIN</flowPara></flowRoot>  <g
     aria-label="interval"
     transform="matrix(0.13647807,0,0,0.13647807,-18.938264,70.784379)"
     style="font-style:normal;font-weight:normal;font-size:40px;line-height:1.25;font-family:sans-serif;letter-spacing:0px;word-spacing:0px;fill:#000000;fill-opacity:1;stroke:none"
     id="flowRoot47">
    <circle
       style="fill:#f52223;stroke-width:7.32718468;fill-opacity:1"
       cx="541.75928"
       cy="-48.875107"
       r="262.94336"
       id="circle10" />
    <path
       style="fill:#ebf0f3;stroke-width:7.87312078"
       inkscape:connector-curvature="0"
       d="m 794.25031,-48.875114 c 0,139.275527 -113.2943,252.491044 -252.49103,252.491044 -139.19672,0 -252.49103,-113.215517 -252.49103,-252.491044 0,-135.732506 107.70423,-246.743796 242.01965,-252.254606 3.46419,-0.15762 7.0072,-0.23642 10.47138,-0.23642 3.46419,0 7.0072,0.0788 10.47138,0.23642 134.31543,5.51081 242.01965,116.5221 242.01965,252.254606 z"
       id="path12" />
    <g
       transform="matrix(7.3271846,0,0,7.3271846,135.61575,-424.19821)"
       aria-label="min"
       style="font-style:normal;font-weight:normal;font-size:6.80253458px;line-height:1.25;font-family:sans-serif;letter-spacing:0px;word-spacing:0px;fill:#64798a;fill-opacity:1;stroke:none;stroke-width:0.17006336"
       id="text140">
      <path
         inkscape:connector-curvature="0"
         d="m 49.866285,34.848148 q 0.217681,-0.05442 0.571413,-0.115643 0.360535,-0.06122 0.829909,-0.06122 0.340127,0 0.571413,0.09524 0.231286,0.08843 0.387745,0.265299 0.04762,-0.03401 0.149656,-0.09524 0.102038,-0.06122 0.251693,-0.115643 0.149656,-0.06122 0.333325,-0.102038 0.183668,-0.04762 0.394547,-0.04762 0.408152,0 0.666648,0.122446 0.258496,0.115643 0.401349,0.333324 0.149656,0.217681 0.197274,0.516993 0.05442,0.299311 0.05442,0.653043 v 1.98634 H 54.043042 V 36.43314 q 0,-0.312917 -0.03401,-0.5374 -0.02721,-0.224484 -0.115643,-0.37414 -0.08163,-0.149656 -0.231286,-0.217681 -0.142854,-0.07483 -0.37414,-0.07483 -0.319719,0 -0.530598,0.08843 -0.204076,0.08163 -0.278903,0.149656 0.05442,0.176866 0.08163,0.387744 0.02721,0.210879 0.02721,0.442165 v 1.98634 h -0.632636 v -1.850289 q 0,-0.312917 -0.03401,-0.5374 -0.03401,-0.224484 -0.122446,-0.37414 -0.08163,-0.149656 -0.231286,-0.217681 -0.142853,-0.07483 -0.367337,-0.07483 -0.09524,0 -0.204076,0.0068 -0.108841,0.0068 -0.210879,0.02041 -0.09524,0.0068 -0.176865,0.02041 -0.08163,0.0136 -0.108841,0.02041 v 2.986312 H 49.86629 Z"
         style="font-style:normal;font-variant:normal;font-weight:normal;font-stretch:normal;font-family:Ubuntu;-inkscape-font-specification:Ubuntu;fill:#64798a;fill-opacity:1;stroke-width:0.17006336"
         id="path161" />
      <path
         inkscape:connector-curvature="0"
         d="M 56.358135,38.283428 H 55.7255 V 34.74611 h 0.632635 z m -0.319719,-4.176756 q -0.170063,0 -0.292509,-0.108841 -0.115643,-0.115643 -0.115643,-0.306114 0,-0.190471 0.115643,-0.299311 0.122446,-0.115643 0.292509,-0.115643 0.170064,0 0.285707,0.115643 0.122445,0.10884 0.122445,0.299311 0,0.190471 -0.122445,0.306114 -0.115643,0.108841 -0.285707,0.108841 z"
         style="font-style:normal;font-variant:normal;font-weight:normal;font-stretch:normal;font-family:Ubuntu;-inkscape-font-specification:Ubuntu;fill:#64798a;fill-opacity:1;stroke-width:0.17006336"
         id="path163" />
      <path
         inkscape:connector-curvature="0"
         d="m 57.452705,34.848148 q 0.217681,-0.05442 0.578216,-0.115643 0.360534,-0.06122 0.829909,-0.06122 0.421757,0 0.700661,0.122446 0.278904,0.115643 0.442165,0.333324 0.170063,0.210879 0.238089,0.51019 0.06802,0.299312 0.06802,0.659846 v 1.98634 h -0.632636 v -1.850289 q 0,-0.326522 -0.04762,-0.557808 -0.04082,-0.231286 -0.142853,-0.374139 -0.102038,-0.142854 -0.272101,-0.204076 -0.170064,-0.06803 -0.421757,-0.06803 -0.102038,0 -0.210879,0.0068 -0.10884,0.0068 -0.210878,0.02041 -0.09524,0.0068 -0.176866,0.02041 -0.07483,0.0136 -0.108841,0.02041 v 2.986312 h -0.632636 z"
         style="font-style:normal;font-variant:normal;font-weight:normal;font-stretch:normal;font-family:Ubuntu;-inkscape-font-specification:Ubuntu;fill:#64798a;fill-opacity:1;stroke-width:0.17006336"
         id="path165" />
    </g>
    <g
       id="g4759"
       transform="translate(0,-85.006798)">
      <path
         id="path168"
         style="font-style:normal;font-variant:normal;font-weight:normal;font-stretch:normal;font-family:Ubuntu;-inkscape-font-specification:Ubuntu;fill:#64798a;fill-opacity:1"
         d="m 477.87703,167.31727 h -3.72 v -20.8 h 3.72 z m -1.88,-24.56 q -1,0 -1.72,-0.64 -0.68,-0.68 -0.68,-1.8 0,-1.12 0.68,-1.76 0.72,-0.68 1.72,-0.68 1,0 1.68,0.68 0.72,0.64 0.72,1.76 0,1.12 -0.72,1.8 -0.68,0.64 -1.68,0.64 z"
         inkscape:connector-curvature="0" />
      <path
         id="path170"
         style="font-style:normal;font-variant:normal;font-weight:normal;font-stretch:normal;font-family:Ubuntu;-inkscape-font-specification:Ubuntu;fill:#64798a;fill-opacity:1"
         d="m 484.31328,147.11727 q 1.28,-0.32 3.4,-0.68 2.12,-0.36 4.88,-0.36 2.48,0 4.12,0.72 1.64,0.68 2.6,1.96 1,1.24 1.4,3 0.4,1.76 0.4,3.88 v 11.68 h -3.72 v -10.88 q 0,-1.92 -0.28,-3.28 -0.24,-1.36 -0.84,-2.2 -0.6,-0.84 -1.6,-1.2 -1,-0.4 -2.48,-0.4 -0.6,0 -1.24,0.04 -0.64,0.04 -1.24,0.12 -0.56,0.04 -1.04,0.12 -0.44,0.08 -0.64,0.12 v 17.56 h -3.72 z"
         inkscape:connector-curvature="0" />
      <path
         id="path172"
         style="font-style:normal;font-variant:normal;font-weight:normal;font-stretch:normal;font-family:Ubuntu;-inkscape-font-specification:Ubuntu;fill:#64798a;fill-opacity:1"
         d="m 510.76203,146.51727 h 7.88 v 3.12 h -7.88 v 9.6 q 0,1.56 0.24,2.6 0.24,1 0.72,1.6 0.48,0.56 1.2,0.8 0.72,0.24 1.68,0.24 1.68,0 2.68,-0.36 1.04,-0.4 1.44,-0.56 l 0.72,3.08 q -0.56,0.28 -1.96,0.68 -1.4,0.44 -3.2,0.44 -2.12,0 -3.52,-0.52 -1.36,-0.56 -2.2,-1.64 -0.84,-1.08 -1.2,-2.64 -0.32,-1.6 -0.32,-3.68 v -18.56 l 3.72,-0.64 z"
         inkscape:connector-curvature="0" />
      <path
         id="path174"
         style="font-style:normal;font-variant:normal;font-weight:normal;font-stretch:normal;font-family:Ubuntu;-inkscape-font-specification:Ubuntu;fill:#64798a;fill-opacity:1"
         d="m 521.82516,156.95727 q 0,-2.76 0.8,-4.8 0.8,-2.08 2.12,-3.44 1.32,-1.36 3.04,-2.04 1.72,-0.68 3.52,-0.68 4.2,0 6.44,2.64 2.24,2.6 2.24,7.96 0,0.24 0,0.64 0,0.36 -0.04,0.68 h -14.24 q 0.24,3.24 1.88,4.92 1.64,1.68 5.12,1.68 1.96,0 3.28,-0.32 1.36,-0.36 2.04,-0.68 l 0.52,3.12 q -0.68,0.36 -2.4,0.76 -1.68,0.4 -3.84,0.4 -2.72,0 -4.72,-0.8 -1.96,-0.84 -3.24,-2.28 -1.28,-1.44 -1.92,-3.4 -0.6,-2 -0.6,-4.36 z m 14.28,-2.04 q 0.04,-2.52 -1.28,-4.12 -1.28,-1.64 -3.56,-1.64 -1.28,0 -2.28,0.52 -0.96,0.48 -1.64,1.28 -0.68,0.8 -1.08,1.84 -0.36,1.04 -0.48,2.12 z"
         inkscape:connector-curvature="0" />
      <path
         id="path176"
         style="font-style:normal;font-variant:normal;font-weight:normal;font-stretch:normal;font-family:Ubuntu;-inkscape-font-specification:Ubuntu;fill:#64798a;fill-opacity:1"
         d="m 553.00891,146.07727 q 0.48,0 1.08,0.08 0.64,0.04 1.24,0.16 0.6,0.08 1.08,0.2 0.52,0.08 0.76,0.16 l -0.64,3.24 q -0.44,-0.16 -1.48,-0.36 -1,-0.24 -2.6,-0.24 -1.04,0 -2.08,0.24 -1,0.2 -1.32,0.28 v 17.48 h -3.72 v -19.92 q 1.32,-0.48 3.28,-0.88 1.96,-0.44 4.4,-0.44 z"
         inkscape:connector-curvature="0" />
      <path
         id="path178"
         style="font-style:normal;font-variant:normal;font-weight:normal;font-stretch:normal;font-family:Ubuntu;-inkscape-font-specification:Ubuntu;fill:#64798a;fill-opacity:1"
         d="m 577.89703,146.51727 q -1.56,5.84 -3.68,11.2 -2.08,5.36 -4.04,9.6 h -3.36 q -1.96,-4.24 -4.08,-9.6 -2.08,-5.36 -3.64,-11.2 h 4 q 0.48,1.96 1.12,4.2 0.68,2.2 1.4,4.4 0.76,2.16 1.52,4.2 0.76,2.04 1.44,3.64 0.68,-1.6 1.44,-3.64 0.76,-2.04 1.48,-4.2 0.76,-2.2 1.4,-4.4 0.68,-2.24 1.16,-4.2 z"
         inkscape:connector-curvature="0" />
      <path
         id="path180"
         style="font-style:normal;font-variant:normal;font-weight:normal;font-stretch:normal;font-family:Ubuntu;-inkscape-font-specification:Ubuntu;fill:#64798a;fill-opacity:1"
         d="m 588.77516,164.63727 q 1.32,0 2.32,-0.04 1.04,-0.08 1.72,-0.24 v -6.2 q -0.4,-0.2 -1.32,-0.32 -0.88,-0.16 -2.16,-0.16 -0.84,0 -1.8,0.12 -0.92,0.12 -1.72,0.52 -0.76,0.36 -1.28,1.04 -0.52,0.64 -0.52,1.72 0,2 1.28,2.8 1.28,0.76 3.48,0.76 z m -0.32,-18.64 q 2.24,0 3.76,0.6 1.56,0.56 2.48,1.64 0.96,1.04 1.36,2.52 0.4,1.44 0.4,3.2 v 13 q -0.48,0.08 -1.36,0.24 -0.84,0.12 -1.92,0.24 -1.08,0.12 -2.36,0.2 -1.24,0.12 -2.48,0.12 -1.76,0 -3.24,-0.36 -1.48,-0.36 -2.56,-1.12 -1.08,-0.8 -1.68,-2.08 -0.6,-1.28 -0.6,-3.08 0,-1.72 0.68,-2.96 0.72,-1.24 1.92,-2 1.2,-0.76 2.8,-1.12 1.6,-0.36 3.36,-0.36 0.56,0 1.16,0.08 0.6,0.04 1.12,0.16 0.56,0.08 0.96,0.16 0.4,0.08 0.56,0.12 v -1.04 q 0,-0.92 -0.2,-1.8 -0.2,-0.92 -0.72,-1.6 -0.52,-0.72 -1.44,-1.12 -0.88,-0.44 -2.32,-0.44 -1.84,0 -3.24,0.28 -1.36,0.24 -2.04,0.52 l -0.44,-3.08 q 0.72,-0.32 2.4,-0.6 1.68,-0.32 3.64,-0.32 z"
         inkscape:connector-curvature="0" />
      <path
         id="path182"
         style="font-style:normal;font-variant:normal;font-weight:normal;font-stretch:normal;font-family:Ubuntu;-inkscape-font-specification:Ubuntu;fill:#64798a;fill-opacity:1"
         d="m 608.83453,167.71727 q -3.44,-0.08 -4.88,-1.48 -1.44,-1.4 -1.44,-4.36 v -24.96 l 3.72,-0.64 v 25 q 0,0.92 0.16,1.52 0.16,0.6 0.52,0.96 0.36,0.36 0.96,0.56 0.6,0.16 1.48,0.28 z"
         inkscape:connector-curvature="0" />
    </g>
  </g>
</svg>
